<svg width="11" height="11" viewBox="0 0 11 11" fill="none" xmlns="http://www.w3.org/2000/svg">
<path d="M5.0097 0.908197C5.03112 0.793499 5.09198 0.689905 5.18175 0.615356C5.27151 0.540808 5.38452 0.5 5.5012 0.5C5.61788 0.5 5.73089 0.540808 5.82065 0.615356C5.91041 0.689905 5.97127 0.793499 5.9927 0.908197L6.5182 3.6872C6.55552 3.88477 6.65154 4.06651 6.79371 4.20868C6.93589 4.35086 7.11762 4.44687 7.3152 4.4842L10.0942 5.0097C10.2089 5.03112 10.3125 5.09198 10.387 5.18175C10.4616 5.27151 10.5024 5.38452 10.5024 5.5012C10.5024 5.61788 10.4616 5.73089 10.387 5.82065C10.3125 5.91041 10.2089 5.97127 10.0942 5.9927L7.3152 6.5182C7.11762 6.55552 6.93589 6.65154 6.79371 6.79371C6.65154 6.93589 6.55552 7.11762 6.5182 7.3152L5.9927 10.0942C5.97127 10.2089 5.91041 10.3125 5.82065 10.387C5.73089 10.4616 5.61788 10.5024 5.5012 10.5024C5.38452 10.5024 5.27151 10.4616 5.18175 10.387C5.09198 10.3125 5.03112 10.2089 5.0097 10.0942L4.4842 7.3152C4.44687 7.11762 4.35086 6.93589 4.20868 6.79371C4.06651 6.65154 3.88477 6.55552 3.6872 6.5182L0.908197 5.9927C0.793499 5.97127 0.689905 5.91041 0.615356 5.82065C0.540808 5.73089 0.5 5.61788 0.5 5.5012C0.5 5.38452 0.540808 5.27151 0.615356 5.18175C0.689905 5.09198 0.793499 5.03112 0.908197 5.0097L3.6872 4.4842C3.88477 4.44687 4.06651 4.35086 4.20868 4.20868C4.35086 4.06651 4.44687 3.88477 4.4842 3.6872L5.0097 0.908197Z" stroke="white" stroke-linecap="round" stroke-linejoin="round"/>
</svg>
